<svg width="145" height="60" viewBox="0 0 145 60" fill="none" xmlns="http://www.w3.org/2000/svg">
<g id="Logo">
<g id="MATHEUS">
<path d="M0.472397 59.5954H0L3.16143 34.1586H4.36059L11.9916 57.6695L19.5863 34.1586H20.7855L23.9469 59.5954H20.9308L18.4235 39.246L11.8463 59.5954H9.55697L2.90706 39.5003L0.472397 59.5954Z" fill="white"/>
<path d="M56.9313 59.5954H53.9152V34.522H47.6287V34.1586H63.2541V34.522H56.9313V59.5954Z" fill="white"/>
<path d="M69.1858 59.5954H66.1697V34.1586H69.1858V45.8595H80.9957V34.1586H84.0118V59.5954H80.9957V46.2229H69.1858V59.5954Z" fill="white"/>
<path d="M102.829 34.1586V34.522H91.382V45.4235H101.993V45.7869H91.382V59.232H103.628V59.5954H88.3659V34.1586H102.829Z" fill="white"/>
<path d="M124.227 34.1586H124.699V48.6939C124.699 52.4973 123.948 55.2954 122.446 57.0881C120.944 58.8565 118.982 59.7408 116.559 59.7408C115.033 59.7408 113.737 59.6075 112.671 59.341C111.605 59.0503 110.6 58.5295 109.655 57.7785C107.717 56.2765 106.748 53.2483 106.748 48.6939V34.1586H109.764V48.6576C109.764 53.0666 110.43 56.01 111.763 57.4878C112.441 58.2146 113.143 58.7112 113.87 58.9777C114.621 59.2441 115.518 59.3774 116.559 59.3774C118.885 59.3774 120.738 58.5295 122.119 56.8337C123.524 55.1137 124.227 52.3883 124.227 48.6576V34.1586Z" fill="white"/>
<path d="M143.01 35.6848C140.806 34.8369 138.722 34.413 136.76 34.413C134.822 34.413 133.308 34.8248 132.218 35.6485C131.128 36.4722 130.582 37.6108 130.582 39.0643C130.582 40.8327 131.503 42.2015 133.344 43.1705C134.168 43.5823 135.064 43.9699 136.033 44.3333C137.026 44.6725 138.02 45.0601 139.013 45.4962C140.006 45.9322 140.915 46.4288 141.738 46.986C142.562 47.5432 143.228 48.3184 143.737 49.3117C144.246 50.2807 144.5 51.5283 144.5 53.0545C144.5 54.5565 144.076 55.8405 143.228 56.9064C142.38 57.9723 141.351 58.6991 140.139 59.0867C138.952 59.4501 137.559 59.6317 135.96 59.6317C132.981 59.6317 130.437 58.8929 128.329 57.4151L128.511 57.1244C129.311 57.7543 130.34 58.2751 131.6 58.6869C132.884 59.0746 134.192 59.2684 135.524 59.2684C137.487 59.2684 139.158 58.8202 140.539 57.9238C141.944 57.0033 142.647 55.6588 142.647 53.8903C142.647 51.9523 141.726 50.4382 139.885 49.348C139.061 48.8635 138.153 48.4153 137.16 48.0035C136.191 47.5917 135.21 47.1677 134.216 46.7317C133.223 46.2714 132.315 45.7626 131.491 45.2054C129.65 43.9942 128.729 42.2742 128.729 40.0454C128.729 38.277 129.323 36.8476 130.51 35.7575C131.697 34.6431 133.477 34.0859 135.852 34.0859C138.25 34.0859 140.684 34.4978 143.155 35.3214L143.01 35.6848Z" fill="white"/>
<path fill-rule="evenodd" clip-rule="evenodd" d="M24.5722 59.5954H25.0082L30.3681 51.601L30.6063 51.2376L38.71 38.9694L41.9687 51.2376L42.0777 51.601L44.9121 59.5954H48.0009L41.9687 34.1586H41.5011L32.9929 46.9496L24.5722 59.5954Z" fill="white"/>
</g>
<g id="DEYSE">
<path d="M27.6815 0.368291C28.7474 0.31984 29.7891 0.295615 30.8066 0.295615C31.8483 0.295615 32.9384 0.40463 34.077 0.62266C35.2398 0.840689 36.3784 1.25252 37.4928 1.85816C38.6314 2.43957 39.5883 3.20268 40.3635 4.14747C41.163 5.06804 41.805 6.29143 42.2895 7.81764C42.774 9.34385 43.0162 11.1971 43.0162 13.3774C43.0162 15.5577 42.6528 17.52 41.9261 19.2642C41.2235 20.9842 40.2545 22.3045 39.019 23.2251C38.3355 23.7359 37.6117 24.174 36.8476 24.5393C36.5 24 34 24.5 33 25.7138C32.1484 25.8473 31.2598 25.9141 30.3342 25.9141C29.1471 25.9141 27.8995 25.8656 26.5913 25.7687H24.7744V0.368291H27.6815ZM27.7905 25.478C28.2992 25.5265 28.9412 25.5507 29.7164 25.5507C30.4916 25.5507 31.073 25.5386 31.4607 25.5144C31.8483 25.4902 32.3812 25.3932 33.0595 25.2237C33.7379 25.0299 34.3677 24.7755 34.9491 24.4606C35.5305 24.1456 36.1362 23.6854 36.766 23.0797C37.4201 22.4499 37.9773 21.711 38.4376 20.8631C39.4793 18.8766 40.0002 16.2845 40.0002 13.0867C40.0002 10.8095 39.7216 8.84722 39.1644 7.19989C38.6072 5.52833 37.9652 4.29282 37.2384 3.49338C36.5359 2.69394 35.6759 2.06408 34.6584 1.60379C33.641 1.11928 32.8294 0.840689 32.2238 0.768013C31.6181 0.695336 30.9156 0.658998 30.1161 0.658998C29.3167 0.658998 28.5415 0.695336 27.7905 0.768013V25.478Z" fill="white"/>
<path d="M61.4871 0.331953V0.695335H50.0406V11.5968H60.6514V11.9602H50.0406V25.4054H61V25.7687H47.0245V0.331953H61.4871Z" fill="white"/>
<path d="M82.444 0.331953C82.9043 0.792238 83.1344 1.38576 83.1344 2.11253C83.1344 2.71817 83.0012 3.33592 82.7347 3.96578L74.9465 17.1566V25.7687H71.9304V17.956L64.6628 0.331953H67.7515L74.6921 16.7205L82.2987 3.96578C82.5651 3.36014 82.6984 2.73028 82.6984 2.07619C82.6984 1.4221 82.5167 0.913367 82.1533 0.549984L82.444 0.331953Z" fill="white"/>
<path d="M98.9008 1.85816C96.6963 1.01027 94.6129 0.586322 92.6506 0.586322C90.7126 0.586322 89.1985 0.998156 88.1083 1.82182C87.0182 2.64549 86.4731 3.78409 86.4731 5.23762C86.4731 7.00608 87.3937 8.37482 89.2348 9.34385C90.0585 9.75568 90.9548 10.1433 91.9239 10.5067C92.9171 10.8458 93.9103 11.2334 94.9036 11.6695C95.8968 12.1056 96.8053 12.6022 97.629 13.1594C98.4526 13.7166 99.1188 14.4918 99.6276 15.485C100.136 16.454 100.391 17.7017 100.391 19.2279C100.391 20.7298 99.9667 22.0138 99.1188 23.0797C98.2709 24.1456 97.2414 24.8724 96.0301 25.26C94.843 25.6234 93.4501 25.8051 91.8512 25.8051C88.8714 25.8051 86.5765 25.2217 84.4688 23.7439L84.588 23.3866C85.3874 24.0165 86.2309 24.4485 87.4906 24.8603C88.7745 25.2479 90.0827 25.4417 91.4151 25.4417C93.3774 25.4417 95.049 24.9935 96.4298 24.0972C97.8349 23.1766 98.5374 21.8321 98.5374 20.0636C98.5374 18.1256 97.6169 16.6115 95.7757 15.5214C94.952 15.0368 94.0436 14.5887 93.0503 14.1768C92.0813 13.765 91.1002 13.3411 90.1069 12.905C89.1137 12.4447 88.2052 11.936 87.3816 11.3788C85.5404 10.1675 84.6199 8.4475 84.6199 6.21875C84.6199 4.45029 85.2134 3.02099 86.4004 1.93084C87.5875 0.816464 89.3681 0.259277 91.7422 0.259277C94.1405 0.259277 96.5752 0.671111 99.0462 1.49478L98.9008 1.85816Z" fill="white"/>
<path d="M118.656 0.331953V0.695335H107.209V11.5968H117.82V11.9602H107.209V25.4054H119.455V25.7687H104.193V0.331953H118.656Z" fill="white"/>
</g>
<path id="&#38;" d="M57.7313 25.7733V25.4062H62.5585V25.7733H61.1806C61.0317 30.7452 59.8285 33.6611 57.2388 38.443C55.9741 40.7737 54.2875 42.8936 52.1789 44.8027C50.0602 46.6817 47.6903 48.0585 45.0691 48.9333C42.5685 49.7678 40.1178 50.0499 37.7172 49.7796C36.3311 49.6395 35.0302 49.3034 33.8147 48.7715C32.6193 48.1994 31.479 47.2909 30.3938 46.0458C29.2985 44.7706 28.4342 43.1839 27.8007 41.2858C26.564 37.58 26.6532 34.0846 28.0682 30.7997C29.5033 27.4746 31.6671 25.3295 34.5594 24.3642C39.8018 22.6147 43.2926 24.0448 45.0319 28.6544L50.5581 20.2305L50.965 20.3961L34.4313 45.502C35.7878 47.0583 37.3349 48.1325 39.0728 48.7245C40.8307 49.2763 42.7641 49.2003 44.8731 48.4964C47.0123 47.7826 48.9604 46.5465 50.7175 44.7881C52.4946 42.9896 53.88 40.9703 54.8736 38.7301C56.8707 34.1794 57.8233 30.3634 57.7313 25.7733ZM42.4118 32.693C41.2354 29.2684 40.0795 26.9587 38.9441 25.7638C37.8389 24.5589 36.518 24.2129 34.9814 24.7257C33.475 25.2284 32.3302 26.0625 31.5472 27.2278C30.7843 28.353 30.3327 29.6589 30.1926 31.1455C29.9727 33.9981 30.3554 36.9007 31.3407 39.8533L32.0947 41.8116C32.6978 43.1171 33.4209 44.1788 34.1846 45.1629L42.4118 32.693Z" fill="#E5C74D"/>
</g>
</svg>
